HIERARCHY
ROOT Root
{
  OFFSET 0.0 0.0 0.0
  CHANNELS 6 Xposition Yposition Zposition Zrotation Yrotation Xrotation
  JOINT Hips
  {
    OFFSET 0.0 100.0 0.0
    CHANNELS 6 Xposition Yposition Zposition Zrotation Yrotation Xrotation
    JOINT Spine1
    {
      OFFSET -0.013727 5.003763 -0.053727
      CHANNELS 3 Zrotation Yrotation Xrotation
      JOINT Spine2
      {
        OFFSET -0.0 7.125301 -0.029825
        CHANNELS 3 Zrotation Yrotation Xrotation
        JOINT Chest
        {
          OFFSET -1e-06 7.550063 -0.815971
          CHANNELS 3 Zrotation Yrotation Xrotation
          JOINT Neck1
          {
            OFFSET -0.181677 26.311295 -0.553348
            CHANNELS 3 Zrotation Yrotation Xrotation
            JOINT Neck2
            {
              OFFSET -3e-06 7.709397 2.302585
              CHANNELS 3 Zrotation Yrotation Xrotation
              JOINT Head
              {
                OFFSET -5e-06 6.128916 1.953709
                CHANNELS 3 Zrotation Yrotation Xrotation
                JOINT HeadEnd
                {
                  OFFSET 0.003598 16.065403 -1.835379
                  CHANNELS 3 Zrotation Yrotation Xrotation
                }
                JOINT Jaw
                {
                  OFFSET 0.002637 0.475592 3.094941
                  CHANNELS 3 Zrotation Yrotation Xrotation
                }
                JOINT LeftEye
                {
                  OFFSET 3.206381 5.380205 7.586883
                  CHANNELS 3 Zrotation Yrotation Xrotation
                }
                JOINT RightEye
                {
                  OFFSET -3.22244 5.361869 7.558234
                  CHANNELS 3 Zrotation Yrotation Xrotation
                }
              }
            }
          }
          JOINT LeftShoulder
          {
            OFFSET 1.621652 23.237164 5.113413
            CHANNELS 3 Zrotation Yrotation Xrotation
            JOINT LeftArm
            {
              OFFSET 14.919846 2e-06 -5.502326
              CHANNELS 3 Zrotation Yrotation Xrotation
              JOINT LeftForeArm
              {
                OFFSET 28.739307 0.0 -0.002588
                CHANNELS 3 Zrotation Yrotation Xrotation
                JOINT LeftHand
                {
                  OFFSET 27.093981 -1e-06 0.002609
                  CHANNELS 3 Zrotation Yrotation Xrotation
                  JOINT LeftHandThumb1
                  {
                    OFFSET 2.276482 -1.392045 3.191413
                    CHANNELS 3 Zrotation Yrotation Xrotation
                    JOINT LeftHandThumb2
                    {
                      OFFSET 4.012836 -1.828127 1.641654
                      CHANNELS 3 Zrotation Yrotation Xrotation
                      JOINT LeftHandThumb3
                      {
                        OFFSET 2.798515 0.0 -3e-06
                        CHANNELS 3 Zrotation Yrotation Xrotation
                        JOINT LeftHandThumbEnd
                        {
                          OFFSET 3.180793 -4e-06 4e-06
                          CHANNELS 3 Zrotation Yrotation Xrotation
                        }
                      }
                    }
                  }
                  JOINT LeftHandIndex1
                  {
                    OFFSET 3.247555 -0.531998 2.296169
                    CHANNELS 3 Zrotation Yrotation Xrotation
                    JOINT LeftHandIndex2
                    {
                      OFFSET 6.364578 0.01206 0.1786
                      CHANNELS 3 Zrotation Yrotation Xrotation
                      JOINT LeftHandIndex3
                      {
                        OFFSET 3.662364 0.0 0.0
                        CHANNELS 3 Zrotation Yrotation Xrotation
                        JOINT LeftHandIndex4
                        {
                          OFFSET 2.329242 4e-06 4e-06
                          CHANNELS 3 Zrotation Yrotation Xrotation
                          JOINT LeftHandIndexEnd
                          {
                            OFFSET 2.759615 -0.180537 -0.113024
                            CHANNELS 3 Zrotation Yrotation Xrotation
                          }
                        }
                      }
                    }
                  }
                  JOINT LeftHandMiddle1
                  {
                    OFFSET 3.163495 0.240981 1.000332
                    CHANNELS 3 Zrotation Yrotation Xrotation
                    JOINT LeftHandMiddle2
                    {
                      OFFSET 6.19078 -0.259278 -1.002548
                      CHANNELS 3 Zrotation Yrotation Xrotation
                      JOINT LeftHandMiddle3
                      {
                        OFFSET 4.35652 -4e-06 -1e-06
                        CHANNELS 3 Zrotation Yrotation Xrotation
                        JOINT LeftHandMiddle4
                        {
                          OFFSET 2.996877 -8e-06 0.0
                          CHANNELS 3 Zrotation Yrotation Xrotation
                          JOINT LeftHandMiddleEnd
                          {
                            OFFSET 2.304287 -0.294569 -0.031741
                            CHANNELS 3 Zrotation Yrotation Xrotation
                          }
                        }
                      }
                    }
                  }
                  JOINT LeftHandRing1
                  {
                    OFFSET 2.882643 -0.053652 -0.322543
                    CHANNELS 3 Zrotation Yrotation Xrotation
                    JOINT LeftHandRing2
                    {
                      OFFSET 5.854541 -0.486202 -1.373841
                      CHANNELS 3 Zrotation Yrotation Xrotation
                      JOINT LeftHandRing3
                      {
                        OFFSET 4.350578 0.0 3e-06
                        CHANNELS 3 Zrotation Yrotation Xrotation
                        JOINT LeftHandRing4
                        {
                          OFFSET 2.651321 7e-06 2e-06
                          CHANNELS 3 Zrotation Yrotation Xrotation
                          JOINT LeftHandRingEnd
                          {
                            OFFSET 1.936105 0.077687 -7.1e-05
                            CHANNELS 3 Zrotation Yrotation Xrotation
                          }
                        }
                      }
                    }
                  }
                  JOINT LeftHandPinky1
                  {
                    OFFSET 2.8655 -0.310005 -1.600378
                    CHANNELS 3 Zrotation Yrotation Xrotation
                    JOINT LeftHandPinky2
                    {
                      OFFSET 5.087849 -1.331141 -1.77123
                      CHANNELS 3 Zrotation Yrotation Xrotation
                      JOINT LeftHandPinky3
                      {
                        OFFSET 3.070974 4e-06 0.0
                        CHANNELS 3 Zrotation Yrotation Xrotation
                        JOINT LeftHandPinky4
                        {
                          OFFSET 1.549672 0.0 1e-06
                          CHANNELS 3 Zrotation Yrotation Xrotation
                          JOINT LeftHandPinkyEnd
                          {
                            OFFSET 1.944893 -0.157802 0.057219
                            CHANNELS 3 Zrotation Yrotation Xrotation
                          }
                        }
                      }
                    }
                  }
                }
              }
            }
          }
          JOINT RightShoulder
          {
            OFFSET -1.380118 23.180309 5.214158
            CHANNELS 3 Zrotation Yrotation Xrotation
            JOINT RightArm
            {
              OFFSET -15.037196 1.2e-05 -5.545604
              CHANNELS 3 Zrotation Yrotation Xrotation
              JOINT RightForeArm
              {
                OFFSET -28.736639 2e-06 -0.002597
                CHANNELS 3 Zrotation Yrotation Xrotation
                JOINT RightHand
                {
                  OFFSET -27.133619 -0.0 0.002613
                  CHANNELS 3 Zrotation Yrotation Xrotation
                  JOINT RightHandThumb1
                  {
                    OFFSET -2.274032 -1.383988 3.163127
                    CHANNELS 3 Zrotation Yrotation Xrotation
                    JOINT RightHandThumb2
                    {
                      OFFSET -4.011429 -1.827466 1.640914
                      CHANNELS 3 Zrotation Yrotation Xrotation
                      JOINT RightHandThumb3
                      {
                        OFFSET -2.794935 -4e-06 -3e-06
                        CHANNELS 3 Zrotation Yrotation Xrotation
                        JOINT RightHandThumbEnd
                        {
                          OFFSET -3.183852 4e-06 1e-06
                          CHANNELS 3 Zrotation Yrotation Xrotation
                        }
                      }
                    }
                  }
                  JOINT RightHandIndex1
                  {
                    OFFSET -3.253266 -0.520057 2.282866
                    CHANNELS 3 Zrotation Yrotation Xrotation
                    JOINT RightHandIndex2
                    {
                      OFFSET -6.341917 0.012471 0.178266
                      CHANNELS 3 Zrotation Yrotation Xrotation
                      JOINT RightHandIndex3
                      {
                        OFFSET -3.654871 -8e-06 -0.0
                        CHANNELS 3 Zrotation Yrotation Xrotation
                        JOINT RightHandIndex4
                        {
                          OFFSET -2.327586 0.0 1e-06
                          CHANNELS 3 Zrotation Yrotation Xrotation
                          JOINT RightHandIndexEnd
                          {
                            OFFSET -2.76179 -0.180656 -0.113078
                            CHANNELS 3 Zrotation Yrotation Xrotation
                          }
                        }
                      }
                    }
                  }
                  JOINT RightHandMiddle1
                  {
                    OFFSET -3.168106 0.246593 1.00103
                    CHANNELS 3 Zrotation Yrotation Xrotation
                    JOINT RightHandMiddle2
                    {
                      OFFSET -6.180828 -0.258836 -1.000895
                      CHANNELS 3 Zrotation Yrotation Xrotation
                      JOINT RightHandMiddle3
                      {
                        OFFSET -4.348901 0.0 -0.0
                        CHANNELS 3 Zrotation Yrotation Xrotation
                        JOINT RightHandMiddle4
                        {
                          OFFSET -3.00024 -4e-06 -2e-06
                          CHANNELS 3 Zrotation Yrotation Xrotation
                          JOINT RightHandMiddleEnd
                          {
                            OFFSET -2.30252 -0.29437 -0.031706
                            CHANNELS 3 Zrotation Yrotation Xrotation
                          }
                        }
                      }
                    }
                  }
                  JOINT RightHandRing1
                  {
                    OFFSET -2.88569 -0.067952 -0.308858
                    CHANNELS 3 Zrotation Yrotation Xrotation
                    JOINT RightHandRing2
                    {
                      OFFSET -5.854198 -0.48613 -1.373731
                      CHANNELS 3 Zrotation Yrotation Xrotation
                      JOINT RightHandRing3
                      {
                        OFFSET -4.33881 -4e-06 -0.0
                        CHANNELS 3 Zrotation Yrotation Xrotation
                        JOINT RightHandRing4
                        {
                          OFFSET -2.654903 -4e-06 4e-06
                          CHANNELS 3 Zrotation Yrotation Xrotation
                          JOINT RightHandRingEnd
                          {
                            OFFSET -1.933568 0.077527 -5.2e-05
                            CHANNELS 3 Zrotation Yrotation Xrotation
                          }
                        }
                      }
                    }
                  }
                  JOINT RightHandPinky1
                  {
                    OFFSET -2.866425 -0.342796 -1.584145
                    CHANNELS 3 Zrotation Yrotation Xrotation
                    JOINT RightHandPinky2
                    {
                      OFFSET -5.091371 -1.332055 -1.772385
                      CHANNELS 3 Zrotation Yrotation Xrotation
                      JOINT RightHandPinky3
                      {
                        OFFSET -3.062664 -4e-06 1e-06
                        CHANNELS 3 Zrotation Yrotation Xrotation
                        JOINT RightHandPinky4
                        {
                          OFFSET -1.546529 4e-06 -2e-06
                          CHANNELS 3 Zrotation Yrotation Xrotation
                          JOINT RightHandPinkyEnd
                          {
                            OFFSET -1.945119 -0.157718 0.057211
                            CHANNELS 3 Zrotation Yrotation Xrotation
                          }
                        }
                      }
                    }
                  }
                }
              }
            }
          }
        }
      }
    }
    JOINT LeftLeg
    {
      OFFSET 10.043214 -8.434526 2.595655
      CHANNELS 3 Zrotation Yrotation Xrotation
      JOINT LeftShin
      {
        OFFSET -1e-06 -43.221752 -0.802913
        CHANNELS 3 Zrotation Yrotation Xrotation
        JOINT LeftFoot
        {
          OFFSET 1e-06 -42.155094 -3.481523
          CHANNELS 3 Zrotation Yrotation Xrotation
          JOINT LeftToeBase
          {
            OFFSET 0.0 -5.059472 13.231529
            CHANNELS 3 Zrotation Yrotation Xrotation
            JOINT LeftToeEnd
            {
              OFFSET -0.009607 -1.647619 6.513017
              CHANNELS 3 Zrotation Yrotation Xrotation
            }
          }
        }
      }
    }
    JOINT RightLeg
    {
      OFFSET -10.047278 -8.29526 2.620317
      CHANNELS 3 Zrotation Yrotation Xrotation
      JOINT RightShin
      {
        OFFSET 1e-06 -43.362206 -0.805556
        CHANNELS 3 Zrotation Yrotation Xrotation
        JOINT RightFoot
        {
          OFFSET 2e-06 -42.117393 -3.478398
          CHANNELS 3 Zrotation Yrotation Xrotation
          JOINT RightToeBase
          {
            OFFSET -0.0 -5.079609 13.284196
            CHANNELS 3 Zrotation Yrotation Xrotation
            JOINT RightToeEnd
            {
              OFFSET 0.009532 -1.634378 6.460591
              CHANNELS 3 Zrotation Yrotation Xrotation
            }
          }
        }
      }
    }
  }
}
MOTION
Frames: 4
Frame Time: 0.03333333333333333
0.0 0.0 0.0 0.0 -0.0 0.0 -1.746315 100.602409 5.856706 0.355958 -0.058734 1.384318 -0.719807 -0.146348 -3.982897 -0.737324 -0.1935 -6.241539 -0.882402 -1.731683 9.362238 1.599498 2.125033 4.086724 -0.636764 0.35321 -3.633351 0.96592 -0.836491 -5.019421 7.7e-05 -2.2e-05 6e-06 0.014681 0.009186 0.004266 0.729633 -3.711954 -10.604044 -0.703474 3.737337 -10.605457 -18.952261 -6.861854 11.004049 -54.934937 -8.038009 25.703989 -0.071152 -20.388992 0.073726 -3.393045 2.66055 -0.626863 -5.882105 9.861284 0.702587 -10.936872 -0.360575 7.156206 1e-06 8.774822 -1e-06 -16.537498 18.03348 5.81176 -1.844032 2.498504 -2.507278 -10.163601 4.678944 4.62111 -20.976025 -5e-06 0.0 -21.22629 2.451693 -3.593999 0.0 -4e-06 1e-06 -1.362682 2.240798 -0.746323 -21.334913 0.58491 3.008325 -13.821213 -2e-06 1e-06 -23.887171 -0.24908 -0.839484 -60.570488 2.397256 -1.289478 -0.294025 1.679686 0.833258 -14.218208 0.093214 1.300581 -34.212051 -0.287564 0.967171 -20.033215 0.964537 1.212845 1e-06 -0.0 0.0 -3.440388 0.788233 0.501655 -15.928187 -3.16731 2.999706 -6.338826 -1e-06 0.0 -18.123446 3.64818 -4.905669 -2e-06 1e-06 -0.0 18.490349 10.47622 10.994196 60.64072 3.774373 14.02083 0.277687 22.813541 0.25621 5.113305 1.658684 -1.866031 2.243542 -5.255038 -3.180158 14.282892 -0.826594 6.952503 -2e-06 -12.690606 -1e-06 16.053251 -17.689585 2.532352 1.665666 -1.955921 -2.878298 4.727799 -4.170588 4.993924 11.020526 3e-06 -1e-06 12.109053 -3.735717 -2.866785 0.0 -0.0 -0.0 1.291986 -1.92855 -1.498091 14.800129 0.567469 3.865607 14.242575 -1.341736 -6.660659 19.631969 0.143926 -0.648244 49.768105 -0.515518 -6.459872 0.353029 -1.51115 -0.031941 20.22279 3.684311 2.316628 18.787271 6e-06 -2e-06 10.751627 -0.479869 1.397907 -0.0 -1e-06 1e-06 3.273807 0.305948 -0.580111 21.486813 11.830377 2.266131 8.162928 2e-06 -1e-06 18.39908 -3.798984 -4.940576 3e-06 0.0 -2e-06 1.784469 2.42011 -4.0135 -0.014992 0.057077 4.462289 -3.094697 -1.108174 -2.084597 1.655194 -1.778206 -0.874331 -0.0 -0.0 2e-06 -2.321365 3.222707 -0.657519 -0.039984 -0.057541 2.603471 2.915657 -7.176372 -3.720154 -1.445331 1.227609 -0.630009 -0.0 -0.0 -1e-06 
0.0 0.0 0.0 0.0 -0.0 0.0 -1.782463 100.610779 5.945923 0.36217 -0.044679 1.434363 -0.734566 -0.16591 -3.997895 -0.736012 -0.124736 -6.2309 -0.908338 -1.772551 9.332617 1.611281 2.1299 4.061559 -0.663355 0.342213 -3.610771 0.952453 -0.850476 -4.966277 7.7e-05 -2.3e-05 6e-06 0.011462 0.028938 0.005201 0.72998 -3.69177 -10.601348 -0.710064 3.7556 -10.602989 -18.835503 -6.841513 10.937398 -55.081093 -7.9708 25.627975 -0.182678 -20.321783 0.074584 -3.371922 2.722373 -0.453551 -5.882113 9.861293 0.70259 -10.936881 -0.360573 7.156212 -1e-06 8.774831 -2e-06 -16.537451 18.037146 5.821 -1.844034 2.498506 -2.507279 -10.16361 4.678949 4.621112 -20.97604 -2e-06 -1e-06 -21.226305 2.451699 -3.594004 0.0 -4e-06 1e-06 -1.362683 2.2408 -0.746324 -21.33493 0.584914 3.008323 -13.821225 -1e-06 0.0 -23.88719 -0.249078 -0.839484 -60.554512 2.385349 -1.212658 -0.294025 1.679688 0.833257 -14.218221 0.093217 1.300581 -34.212082 -0.28756 0.96717 -20.033232 0.96454 1.212843 1e-06 -1e-06 0.0 -3.440391 0.788234 0.501658 -15.928201 -3.16731 2.999708 -6.33883 -0.0 0.0 -18.123463 3.648187 -4.905676 -3e-06 1e-06 -0.0 18.50297 10.447265 10.955611 60.664879 3.74757 14.105533 0.242874 22.761806 0.248292 5.232916 1.62487 -2.014312 2.243542 -5.255037 -3.180157 14.282889 -0.826595 6.952502 -1e-06 -12.690607 -1e-06 16.096163 -17.708385 2.487739 1.665667 -1.955922 -2.878299 4.727798 -4.170588 4.993923 11.020526 1e-06 -0.0 12.109052 -3.735717 -2.866786 -1e-06 -0.0 -0.0 1.291986 -1.928551 -1.49809 14.800127 0.567467 3.865607 14.242571 -1.341738 -6.660658 19.631968 0.143927 -0.648246 49.898811 -0.517132 -6.462505 0.353029 -1.51115 -0.03194 20.222788 3.684309 2.316629 18.787273 4e-06 -2e-06 10.751626 -0.479869 1.397903 -0.0 0.0 1e-06 3.273807 0.305947 -0.580111 21.486813 11.830376 2.266134 8.162927 0.0 1e-06 18.399086 -3.798987 -4.940577 3e-06 0.0 -2e-06 1.788255 2.425897 -3.945757 -0.028468 -0.000189 4.273058 -3.189002 -1.054178 -2.015313 1.654227 -1.797205 -0.901837 0.0 -0.0 2e-06 -2.315524 3.362667 -0.625841 -0.043166 -0.047511 2.498458 2.886119 -7.33384 -3.681264 -1.447865 1.222119 -0.612138 -0.0 -0.0 -1e-06 
0.0 0.0 0.0 0.0 -0.0 0.0 -1.757018 100.611031 5.975198 0.381835 -0.064748 1.487188 -0.752068 -0.186209 -4.013032 -0.733804 -0.096002 -6.239235 -0.928844 -1.772951 9.337708 1.612282 2.146933 4.039975 -0.673728 0.31527 -3.629324 0.937406 -0.850047 -4.852086 7.7e-05 -2.3e-05 6e-06 0.010319 0.02703 0.004759 0.72732 -3.692191 -10.611975 -0.709479 3.75117 -10.609927 -18.72073 -6.820391 10.883739 -55.239082 -7.882529 25.512917 -0.260771 -20.329758 0.079145 -3.377987 2.807671 -0.553146 -5.882113 9.861293 0.702594 -10.936881 -0.360574 7.156209 0.0 8.774832 -1e-06 -16.565672 18.070087 5.81107 -1.844034 2.498507 -2.50728 -10.16361 4.67895 4.621112 -20.976044 -2e-06 1e-06 -21.226313 2.451699 -3.594005 -0.0 -4e-06 0.0 -1.362682 2.240799 -0.746324 -21.334934 0.584912 3.008326 -13.821227 -2e-06 -1e-06 -23.887192 -0.249079 -0.839483 -60.544941 2.395741 -1.22822 -0.294025 1.679689 0.833258 -14.218224 0.093216 1.30058 -34.212082 -0.287561 0.967167 -20.033232 0.964537 1.212843 1e-06 -2e-06 0.0 -3.440392 0.788235 0.501657 -15.928203 -3.167312 2.999707 -6.338832 -1e-06 -1e-06 -18.123466 3.648186 -4.905676 -3e-06 1e-06 1e-06 18.494665 10.463758 10.927771 60.69376 3.726909 14.152004 0.224425 22.706703 0.229325 5.295987 1.582453 -2.03154 2.243543 -5.255039 -3.180159 14.282896 -0.826595 6.952506 -2e-06 -12.69061 -0.0 16.149094 -17.721825 2.472364 1.665667 -1.955922 -2.8783 4.7278 -4.170589 4.993925 11.02053 3e-06 -1e-06 12.109056 -3.735717 -2.866786 -0.0 -0.0 -0.0 1.291986 -1.92855 -1.49809 14.800134 0.567468 3.865609 14.242578 -1.341736 -6.66066 19.631973 0.143928 -0.648246 49.985538 -0.544049 -6.47767 0.353029 -1.511151 -0.031939 20.222801 3.684311 2.316631 18.787283 6e-06 -1e-06 10.751634 -0.479867 1.397904 1e-06 0.0 -0.0 3.273808 0.305946 -0.580112 21.486822 11.83038 2.266134 8.16293 1e-06 -2e-06 18.399092 -3.798986 -4.940578 4e-06 0.0 -2e-06 1.746435 2.379405 -3.977669 -0.031719 -0.032042 4.26295 -3.210349 -0.97805 -2.025059 1.654619 -1.807212 -0.888097 0.0 -0.0 2e-06 -2.347838 3.4463 -0.681101 -0.042048 -0.040678 2.546182 2.909798 -7.457254 -3.732958 -1.447481 1.219027 -0.560964 -0.0 -0.0 -1e-06 
0.0 0.0 0.0 0.0 -0.0 0.0 -1.708407 100.608841 5.987248 0.393708 -0.084666 1.534526 -0.769709 -0.202491 -4.014642 -0.724411 -0.089964 -6.253965 -0.941482 -1.745727 9.343714 1.603232 2.169628 4.045087 -0.68002 0.309412 -3.656976 0.932863 -0.854969 -4.768801 7.7e-05 -2.3e-05 6e-06 0.010222 0.020856 0.001475 0.723984 -3.697164 -10.627941 -0.706185 3.742913 -10.622975 -18.638287 -6.791661 10.852183 -55.367912 -7.815685 25.443707 -0.297566 -20.400105 0.087697 -3.367942 2.841941 -0.70756 -5.882111 9.861292 0.702593 -10.936878 -0.360573 7.156209 -0.0 8.77483 -1e-06 -16.568151 18.071297 5.792146 -1.844034 2.498506 -2.50728 -10.163608 4.678949 4.621113 -20.976034 -1e-06 1e-06 -21.226299 2.4517 -3.594003 -0.0 -4e-06 0.0 -1.362682 2.240799 -0.746323 -21.334929 0.584912 3.008322 -13.821221 -2e-06 0.0 -23.887188 -0.249078 -0.839485 -60.52549 2.395699 -1.261444 -0.294025 1.679688 0.833257 -14.218218 0.093217 1.300581 -34.21207 -0.287562 0.967168 -20.033226 0.964537 1.212843 1e-06 -1e-06 0.0 -3.440391 0.788233 0.501658 -15.928196 -3.167309 2.999709 -6.338829 -1e-06 -0.0 -18.123459 3.648185 -4.905672 -2e-06 1e-06 1e-06 18.473528 10.500997 10.909741 60.724091 3.691212 14.221168 0.200002 22.695911 0.213331 5.359612 1.529834 -2.035358 2.243544 -5.25504 -3.18016 14.2829 -0.826597 6.952505 -1e-06 -12.690612 1e-06 16.197397 -17.729832 2.466415 1.665668 -1.955922 -2.8783 4.727803 -4.170592 4.993929 11.020534 1e-06 -0.0 12.10906 -3.735719 -2.866787 -1e-06 -0.0 -0.0 1.291987 -1.92855 -1.498089 14.800136 0.567467 3.865608 14.242582 -1.341739 -6.660663 19.631979 0.143925 -0.648248 50.000896 -0.574548 -6.491447 0.353029 -1.511152 -0.03194 20.222805 3.68431 2.316629 18.787287 3e-06 -2e-06 10.751637 -0.479868 1.397904 1e-06 -1e-06 1e-06 3.273809 0.305946 -0.580113 21.48683 11.830383 2.266133 8.162932 0.0 -2e-06 18.399099 -3.798988 -4.940581 3e-06 0.0 -2e-06 1.70194 2.331874 -4.045588 -0.031196 -0.048116 4.337325 -3.175958 -0.903567 -2.079646 1.654799 -1.803506 -0.870045 0.0 -0.0 2e-06 -2.384702 3.474166 -0.742359 -0.0428 -0.041892 2.602353 2.949449 -7.51483 -3.783499 -1.446874 1.211915 -0.52592 -0.0 -0.0 -1e-06 
